# xmcd
#
# Track frame offsets:
#	150
#	15345
#	32207
#	44805
#	57150
#	74330
#	90992
#	108270
#	125440
#	145975
#	159967
#	176352
#	192340
#	210122
#	222310
#	238237
#
# Disc length: 3355 seconds
#
# Revision: 2
# Processed by: cddbd v1.5.2PL0 Copyright (c) Steve Scherf et al.
# Submitted via: audiograbber 1.83.01
#
DISCID=da0d1910
DTITLE=Joe Diffie - 16 Biggest Hits
DYEAR=2002
DGENRE=Country
TTITLE0=Home
TTITLE1=If You Want Me To
TTITLE2=If The Devil Danced In Empty Pockets
TTITLE3=New Way To Light Up An Old Flame
TTITLE4=Is It Cold In Here
TTITLE5=Ships That Don't Come In
TTITLE6=Honky Tonk Attitude
TTITLE7=Prop Me Up Beside The Jukebox
TTITLE8=John Deere Green 
TTITLE9=Third Rock From The Sun
TTITLE10=Pickup Man
TTITLE11=So Help Me Girl
TTITLE12=Bigger Than The Beatles
TTITLE13=Texas Size Heartache
TTITLE14=A Night To Remember
TTITLE15=It's Always Somethin'
EXTD=
EXTT0=
EXTT1=
EXTT2=
EXTT3=
EXTT4=
EXTT5=
EXTT6=
EXTT7=
EXTT8=
EXTT9=
EXTT10=
EXTT11=
EXTT12=
EXTT13=
EXTT14=
EXTT15=
PLAYORDER=
